<?xml version="1.0" encoding="utf-8"?>
<svg viewBox="0 0 512 512" xmlns="http://www.w3.org/2000/svg" fill="#474747">
  <path d="M 87.09 122.928 L 424.182 122.928 L 406.23 350.844 C 401.384 349.833 396.447 349.324 391.497 349.328 C 351.935 349.328 319.865 381.398 319.865 420.96 C 319.865 430.025 321.549 438.697 324.62 446.679 L 151.537 446.448 Z M 291.061 171.889 L 284.579 171.889 C 275.976 171.886 267.623 174.783 260.869 180.112 C 254.113 185.435 249.347 192.881 247.344 201.246 L 227.984 281.915 C 227.379 284.44 226.35 286.844 224.942 289.025 C 222.876 292.216 220.052 294.847 216.723 296.682 C 213.329 298.552 209.516 299.532 205.641 299.53 L 199.159 299.53 C 193.264 299.53 189.58 305.911 192.527 311.015 C 193.895 313.385 196.423 314.844 199.159 314.844 L 205.641 314.844 C 214.243 314.849 222.595 311.952 229.348 306.623 C 236.104 301.299 240.87 293.854 242.875 285.489 L 262.235 204.82 C 262.839 202.295 263.869 199.89 265.279 197.71 C 267.344 194.519 270.167 191.888 273.496 190.053 C 276.89 188.182 280.703 187.203 284.579 187.208 L 291.061 187.208 C 296.957 187.208 300.642 180.825 297.694 175.719 C 296.326 173.349 293.797 171.889 291.061 171.889 Z M 284.715 267.754 C 283.883 268.28 283.103 268.885 282.387 269.56 C 281.585 270.313 281.065 270.887 280.835 271.287 C 280.835 269.906 280.55 268.729 279.974 267.754 C 279.165 266.428 277.007 265.766 273.5 265.766 C 269.882 265.766 267.67 266.487 266.865 267.926 C 266.404 268.731 266.13 269.464 266.038 270.124 C 265.954 270.782 265.912 271.745 265.912 273.011 L 265.912 303.539 C 265.912 304.866 265.954 305.859 266.038 306.516 C 266.13 307.178 266.375 307.941 266.773 308.806 C 267.578 310.357 269.794 311.132 273.421 311.132 C 277.093 311.132 279.305 310.357 280.055 308.806 C 280.514 308.002 280.789 307.268 280.872 306.609 C 280.963 305.942 281.009 304.949 281.009 303.632 L 281.009 288.363 C 281.009 286.124 281.71 284.311 283.116 282.931 C 284.526 281.55 286.366 280.863 288.635 280.863 C 290.912 280.863 292.722 281.521 294.073 282.843 C 295.422 284.169 296.097 286.006 296.097 288.363 L 296.097 303.539 C 296.097 305.496 296.271 306.963 296.614 307.945 C 297.245 310.067 299.602 311.132 303.687 311.132 C 307.368 311.132 309.61 310.357 310.412 308.806 C 310.819 308.002 311.064 307.268 311.15 306.609 C 311.233 305.942 311.275 304.949 311.275 303.632 L 311.275 288.451 C 311.275 282.126 309.365 276.765 305.541 272.366 C 301.72 267.966 296.935 265.766 291.186 265.766 C 288.876 265.75 286.617 266.444 284.715 267.754 Z"/>
  <path d="M 67.177 93.58 L 444.822 93.58 L 444.822 39.84 L 67.177 39.84 L 67.177 93.58 Z"/>
  <circle cx="395.914" cy="424.16" r="47.999"/>
</svg>